HIERARCHY
ROOT Hips
{
	OFFSET	0.00	0.00	0.00
	CHANNELS 6 Xposition Yposition Zposition Zrotation Xrotation Yrotation
	JOINT LeftUpLeg
	{
		OFFSET	 0.126116	-0.014019	-0.065224
		CHANNELS 3 Zrotation Xrotation Yrotation
		JOINT LeftLeg
		{
			OFFSET	 0.000000	 0.000000	 0.569914
			CHANNELS 3 Zrotation Xrotation Yrotation
			JOINT LeftFoot
			{
				OFFSET	 0.000000	 0.000000	 0.544423
				CHANNELS 3 Zrotation Xrotation Yrotation
				JOINT LeftToeBase
				{
					OFFSET	 0.000000	 0.000000	 0.207117
					CHANNELS 3 Zrotation Xrotation Yrotation
					End Site
					{
						OFFSET	 0.000000	 0.000000	 0.207117
					}
				}
			}
		}
	}
	JOINT RightUpLeg
	{
		OFFSET	-0.124023	-0.008373	-0.065224
		CHANNELS 3 Zrotation Xrotation Yrotation
		JOINT RightLeg
		{
			OFFSET	 0.000000	 0.000000	 0.570047
			CHANNELS 3 Zrotation Xrotation Yrotation
			JOINT RightFoot
			{
				OFFSET	 0.000000	 0.000000	 0.544354
				CHANNELS 3 Zrotation Xrotation Yrotation
				JOINT RightToeBase
				{
					OFFSET	 0.000000	 0.000000	 0.207540
					CHANNELS 3 Zrotation Xrotation Yrotation
					End Site
					{
						OFFSET	 0.000000	 0.000000	 0.207540
					}
				}
			}
		}
	}
	JOINT Spine
	{
		OFFSET	 0.000184	-0.007763	 0.117403
		CHANNELS 3 Zrotation Xrotation Yrotation
		JOINT Spine1
		{
			OFFSET	 0.000000	 0.000000	 0.137269
			CHANNELS 3 Zrotation Xrotation Yrotation
			JOINT Spine2
			{
				OFFSET	 0.000000	 0.000000	 0.156879
				CHANNELS 3 Zrotation Xrotation Yrotation
				JOINT LeftShoulder
				{
					OFFSET	 0.080501	-0.002496	 0.160144
					CHANNELS 3 Zrotation Xrotation Yrotation
					JOINT LeftArm
					{
						OFFSET	 0.000000	 0.000000	 0.164363
						CHANNELS 3 Zrotation Xrotation Yrotation
						JOINT LeftForeArm
						{
							OFFSET	 0.000000	 0.000000	 0.364576
							CHANNELS 3 Zrotation Xrotation Yrotation
							JOINT LeftHand
							{
								OFFSET	 0.000000	 0.000000	 0.360812
								CHANNELS 3 Zrotation Xrotation Yrotation
								JOINT LeftHandIndex1
								{
									OFFSET	 0.000000	 0.000000	 0.086006
									CHANNELS 3 Zrotation Xrotation Yrotation
									JOINT LeftHandIndex2
									{
										OFFSET	 0.000000	 0.000000	 0.047236
										CHANNELS 3 Zrotation Xrotation Yrotation
										JOINT LeftHandIndex3
										{
											OFFSET	-0.004284	-0.000551	 0.038166
											CHANNELS 3 Zrotation Xrotation Yrotation
											End Site
											{
												OFFSET	-0.004284	-0.000551	 0.038166
											}
										}
									}
								}
							}
						}
					}
				}
				JOINT Neck
				{
					OFFSET	 0.000000	 0.000000	 0.176489
					CHANNELS 3 Zrotation Xrotation Yrotation
					JOINT Head
					{
						OFFSET	 0.000000	-0.001747	 0.077940
						CHANNELS 3 Zrotation Xrotation Yrotation
						End Site
						{
							OFFSET	 0.000000	-0.001747	 0.077940
						}
					}
				}
				JOINT RightShoulder
				{
					OFFSET	-0.080363	 0.000306	 0.159706
					CHANNELS 3 Zrotation Xrotation Yrotation
					JOINT RightArm
					{
						OFFSET	 0.000000	 0.000000	 0.164196
						CHANNELS 3 Zrotation Xrotation Yrotation
						JOINT RightForeArm
						{
							OFFSET	 0.000000	 0.000000	 0.365611
							CHANNELS 3 Zrotation Xrotation Yrotation
							JOINT RightHand
							{
								OFFSET	 0.000000	 0.000000	 0.360648
								CHANNELS 3 Zrotation Xrotation Yrotation
								JOINT RightHandIndex1
								{
									OFFSET	 0.000000	 0.000000	 0.069977
									CHANNELS 3 Zrotation Xrotation Yrotation
									JOINT RightHandIndex2
									{
										OFFSET	 0.000000	 0.000000	 0.052305
										CHANNELS 3 Zrotation Xrotation Yrotation
										JOINT RightHandIndex3
										{
											OFFSET	 0.009002	-0.000782	 0.042196
											CHANNELS 3 Zrotation Xrotation Yrotation
											End Site
											{
												OFFSET	 0.009002	-0.000782	 0.042196
											}
										}
									}
								}
							}
						}
					}
				}
			}
		}
	}
}
MOTION
Frames:    13
Frame Time: 0.03333334
-0.000573	 0.008974	 1.222181	 0.004045	 0.007333	-0.098183	 9.260231	-13.731000	 177.448800	 0.786730	-35.633290	-2.363361	-27.669770	 82.047070	 22.209830	-2.385833	 28.452760	 0.000004	-9.359256	-13.459890	-177.189100	-0.783937	-35.674220	 2.323395	 28.887190	 82.482290	-23.568400	 2.384658	 28.388730	 0.000004	-11.286730	 2.723766	-0.017769	 1.175931	 3.667558	 0.479055	-3.532750	-4.623082	-0.781583	-91.776250	 78.527470	-180.000000	 49.783450	 35.442020	-52.035650	-25.152470	 2.439845	-7.315216	-28.984720	 2.761564	-4.232596	-2.635965	 4.993658	 6.788941	-5.165319	 0.784187	 3.516649	-5.225038	 0.466231	 0.424329	-0.000002	-3.783157	-0.089647	-3.423812	 4.938062	 0.147662	 89.782140	 78.203900	 180.000000	 1.828825	 12.829320	 105.639300	-17.343740	 2.114360	 7.434260	 4.202561	 2.146178	-6.144277	 6.112037	 4.509576	-0.364401	 4.968462	 1.518543	-9.347576	 5.168945	 0.703820	 2.021906
-0.000586	 0.008089	 1.222563	 0.004037	 0.007337	-0.098183	 9.263550	-13.655940	 177.443600	 0.793456	-35.500320	-2.351792	-27.456720	 81.997500	 21.994390	-2.385833	 28.452760	 0.000004	-9.363325	-13.340720	-177.177400	-0.791460	-35.522990	 2.310472	 28.780900	 82.453640	-23.461220	 2.384658	 28.388730	 0.000004	-10.766600	 2.723760	-0.017769	 1.175936	 3.667550	 0.479009	-3.532745	-4.623076	-0.781556	-91.776120	 78.527470	 179.999900	 49.804950	 35.434880	-52.058340	-25.298770	 2.477051	-7.368875	-28.994220	 2.774832	-4.231949	-2.635965	 4.993658	 6.788941	-5.165319	 0.784187	 3.516649	-5.225038	 0.466231	 0.424329	-0.000002	-3.783157	-0.089647	-3.423810	 4.938063	 0.147662	 89.782090	 78.203870	 180.000000	 1.843538	 12.971670	 105.678100	-17.301310	 2.151410	 7.490112	 4.228207	 2.071218	-6.187971	 6.112037	 4.509576	-0.364401	 4.968462	 1.518543	-9.347576	 5.168945	 0.703820	 2.021906
-0.000593	 0.007196	 1.222917	 0.004045	 0.007333	-0.098183	 9.266629	-13.584980	 177.438600	 0.799712	-35.375940	-2.341002	-27.263170	 81.951550	 21.798630	-2.385833	 28.452760	 0.000004	-9.367193	-13.225390	-177.165800	-0.798521	-35.379990	 2.298294	 28.693430	 82.428630	-23.373040	 2.384658	 28.388730	 0.000004	-10.158120	 2.723776	-0.017768	 1.175930	 3.667533	 0.479053	-3.532748	-4.623067	-0.781580	-91.776210	 78.527450	-180.000000	 49.849970	 35.436210	-52.115730	-25.437690	 2.513698	-7.420767	-29.008900	 2.788692	-4.231955	-2.635965	 4.993658	 6.788941	-5.165319	 0.784187	 3.516649	-5.225038	 0.466231	 0.424329	-0.000002	-3.783157	-0.089647	-3.423812	 4.938062	 0.147662	 89.782150	 78.203850	 180.000000	 1.795712	 13.129600	 105.699700	-17.273760	 2.186750	 7.542199	 4.267899	 2.011298	-6.230173	 6.112037	 4.509576	-0.364401	 4.968462	 1.518543	-9.347576	 5.168945	 0.703820	 2.021906
-0.000583	 0.006164	 1.223260	 0.004044	 0.007335	-0.098190	 9.269646	-13.513720	 177.433300	 0.805784	-35.254430	-2.330495	-27.084140	 81.908170	 21.617550	-2.385833	 28.452760	 0.000004	-9.371071	-13.103380	-177.153100	-0.805546	-35.236770	 2.286139	 28.636810	 82.408780	-23.316020	 2.384658	 28.388730	 0.000004	-9.349669	 2.723773	-0.017760	 1.175931	 3.667536	 0.479052	-3.532748	-4.623067	-0.781581	-91.776150	 78.527470	 180.000000	 49.930020	 35.456770	-52.229990	-25.579480	 2.550987	-7.473288	-29.032040	 2.805059	-4.232759	-2.635965	 4.993658	 6.788941	-5.165319	 0.784187	 3.516649	-5.225038	 0.466231	 0.424329	-0.000002	-3.783157	-0.089647	-3.423812	 4.938062	 0.147662	 89.782100	 78.203870	 180.000000	 1.717953	 13.348800	 105.696600	-17.264810	 2.222990	 7.597241	 4.193056	 2.021970	-6.269984	 6.112037	 4.509576	-0.364401	 4.968462	 1.518543	-9.347576	 5.168945	 0.703820	 2.021906
-0.000554	 0.005192	 1.223458	 0.004045	 0.007333	-0.098183	 9.271429	-13.466830	 177.429500	 0.809395	-35.181900	-2.324237	-26.996340	 81.885890	 21.528730	-2.385833	 28.452760	 0.000004	-9.373588	-13.009490	-177.142300	-0.810077	-35.143900	 2.278280	 28.668650	 82.407820	-23.348350	 2.384658	 28.388730	 0.000004	-8.487000	 2.723766	-0.017769	 1.175931	 3.667567	 0.479062	-3.532754	-4.623087	-0.781584	-91.776250	 78.527450	-179.999900	 50.038890	 35.493620	-52.390750	-25.687930	 2.580787	-7.514847	-29.060020	 2.820607	-4.234376	-2.635965	 4.993658	 6.788941	-5.165319	 0.784187	 3.516649	-5.225038	 0.466231	 0.424329	-0.000002	-3.783157	-0.089647	-3.423810	 4.938063	 0.147662	 89.782160	 78.203870	 179.999900	 1.741944	 13.635400	 105.689800	-17.276670	 2.250951	 7.637872	 3.725208	 2.202405	-6.289968	 6.112037	 4.509576	-0.364401	 4.968462	 1.518543	-9.347576	 5.168945	 0.703820	 2.021906
-0.000526	 0.004261	 1.223694	 0.004045	 0.007333	-0.098183	 9.273540	-13.414230	 177.425300	 0.813632	-35.096360	-2.316874	-26.882250	 81.857320	 21.413310	-2.385833	 28.452760	 0.000004	-9.376454	-12.911570	-177.131600	-0.815196	-35.038430	 2.269372	 28.664570	 82.399680	-23.344380	 2.384658	 28.388730	 0.000004	-7.544524	 2.723766	-0.017769	 1.175930	 3.667563	 0.479046	-3.532747	-4.623084	-0.781578	-91.776230	 78.527470	-180.000000	 50.167220	 35.556820	-52.594040	-25.766790	 2.601448	-7.543462	-29.093280	 2.835926	-4.236763	-2.635965	 4.993658	 6.788941	-5.165319	 0.784187	 3.516649	-5.225038	 0.466231	 0.424329	-0.000002	-3.783157	-0.089647	-3.423811	 4.938062	 0.147662	 89.782140	 78.203870	 180.000000	 1.182515	 14.205800	 105.619700	-16.999580	 2.273678	 7.667326	 2.917627	 2.394279	-6.265184	 6.112037	 4.509576	-0.364401	 4.968462	 1.518543	-9.347576	 5.168945	 0.703820	 2.021906
-0.000520	 0.003367	 1.224172	 0.004044	 0.007335	-0.098190	 9.277754	-13.322560	 177.419200	 0.821894	-34.928620	-2.302476	-26.614270	 81.791630	 21.142180	-2.385833	 28.452760	 0.000004	-9.381658	-12.774690	-177.118900	-0.824258	-34.850350	 2.253556	 28.483320	 82.354890	-23.161420	 2.384658	 28.388730	 0.000004	-6.491106	 2.723773	-0.017760	 1.175931	 3.667544	 0.479055	-3.532752	-4.623072	-0.781580	-91.776190	 78.527470	-180.000000	 50.323910	 35.634080	-52.842240	-25.813710	 2.613949	-7.560779	-29.132550	 2.851524	-4.239956	-2.635965	 4.993658	 6.788941	-5.165319	 0.784187	 3.516649	-5.225038	 0.466231	 0.424329	-0.000002	-3.783157	-0.089647	-3.423812	 4.938062	 0.147662	 89.782070	 78.203890	-180.000000	-0.594565	 14.909850	 105.410200	-16.366700	 2.291434	 7.682603	 2.415912	 2.363407	-6.218852	 6.112037	 4.509576	-0.364401	 4.968462	 1.518543	-9.347576	 5.168945	 0.703820	 2.021906
-0.000540	 0.002418	 1.224980	 0.004045	 0.007333	-0.098183	 9.284854	-13.175280	 177.410000	 0.835622	-34.646710	-2.278413	-26.146730	 81.675320	 20.668990	-2.385833	 28.452760	 0.000004	-9.390152	-12.577310	-177.102600	-0.838779	-34.545260	 2.228048	 28.082780	 82.262030	-22.756840	 2.384658	 28.388730	 0.000004	-5.188786	 2.723766	-0.017769	 1.175930	 3.667563	 0.479062	-3.532749	-4.623087	-0.781586	-91.776240	 78.527470	-180.000000	 50.520800	 35.747650	-53.164790	-25.820590	 2.616176	-7.563771	-29.183510	 2.869164	-4.244468	-2.635965	 4.993658	 6.788941	-5.165319	 0.784187	 3.516649	-5.225038	 0.466231	 0.424329	-0.000002	-3.783157	-0.089647	-3.423810	 4.938063	 0.147662	 89.782170	 78.203870	 179.999900	-3.962308	 15.851430	 105.029100	-15.272920	 2.302907	 7.685186	 2.391809	 2.040116	-6.150047	 6.112037	 4.509576	-0.364401	 4.968462	 1.518543	-9.347576	 5.168945	 0.703820	 2.021906
-0.000560	 0.001590	 1.225767	 0.004044	 0.007335	-0.098181	 9.291836	-13.032250	 177.401200	 0.848891	-34.370460	-2.254992	-25.696340	 81.559730	 20.213020	-2.385833	 28.452760	 0.000004	-9.398470	-12.390080	-177.087500	-0.852712	-34.248070	 2.203382	 27.679920	 82.167140	-22.349800	 2.384658	 28.388730	 0.000004	-3.922544	 2.723765	-0.017771	 1.175930	 3.667564	 0.479062	-3.532750	-4.623090	-0.781586	-91.776160	 78.527430	 180.000000	 50.728100	 35.868430	-53.506190	-25.780750	 2.604361	-7.547684	-29.231590	 2.885454	-4.248802	-2.635965	 4.993658	 6.788941	-5.165319	 0.784187	 3.516649	-5.225038	 0.466231	 0.424329	-0.000002	-3.783157	-0.089647	-3.423812	 4.938062	 0.147662	 89.782140	 78.203890	 180.000000	-7.718805	 16.854980	 104.328300	-14.042630	 2.303441	 7.669968	 2.917106	 1.515595	-6.077837	 6.112037	 4.509576	-0.364401	 4.968462	 1.518543	-9.347576	 5.168945	 0.703820	 2.021906
-0.000568	 0.000575	 1.226665	 0.004048	 0.007338	-0.098149	 9.299866	-12.867070	 177.390900	 0.863944	-34.052470	-2.228220	-25.195200	 81.426410	 19.705490	-2.385833	 28.452760	 0.000004	-9.408143	-12.171490	-177.069700	-0.868582	-33.904150	 2.175050	 27.234160	 82.058410	-21.899290	 2.384658	 28.388730	 0.000004	-2.256926	 2.723763	-0.017803	 1.175929	 3.667556	 0.479055	-3.532749	-4.623082	-0.781583	-91.776150	 78.527470	 180.000000	 51.010640	 36.039400	-53.974740	-25.666720	 2.574158	-7.505826	-29.291260	 2.906203	-4.254074	-2.635965	 4.993658	 6.788941	-5.165319	 0.784187	 3.516649	-5.225038	 0.466231	 0.424329	-0.000002	-3.783157	-0.089647	-3.423809	 4.938063	 0.147662	 89.782100	 78.203890	 180.000000	-12.776460	 18.715780	 102.793900	-12.270650	 2.289648	 7.627371	 4.380003	 0.604159	-5.887167	 6.112037	 4.509576	-0.364401	 4.968462	 1.518543	-9.347576	 5.168945	 0.703820	 2.021906
-0.000569	-0.000323	 1.227411	 0.004045	 0.007333	-0.098183	 9.306638	-12.727790	 177.382100	 0.876397	-33.785500	-2.205902	-24.788740	 81.314500	 19.293720	-2.385833	 28.452760	 0.000004	-9.416350	-11.985040	-177.054200	-0.881769	-33.613930	 2.151325	 26.875990	 81.967960	-21.537240	 2.384658	 28.388730	 0.000004	-0.663110	 2.723766	-0.017769	 1.175932	 3.667570	 0.479050	-3.532748	-4.623089	-0.781580	-91.776230	 78.527420	-180.000000	 51.291520	 36.209790	-54.440930	-25.497490	 2.529853	-7.443579	-29.345570	 2.925534	-4.258772	-2.635965	 4.993658	 6.788941	-5.165319	 0.784187	 3.516649	-5.225038	 0.466231	 0.424329	-0.000002	-3.783157	-0.089647	-3.423811	 4.938062	 0.147662	 89.782160	 78.203870	 179.999900	-17.740400	 20.804900	 100.849300	-10.654070	 2.260516	 7.563558	 6.146967	-0.318880	-5.611434	 6.112037	 4.509576	-0.364401	 4.968462	 1.518543	-9.347576	 5.168945	 0.703820	 2.021906
-0.000572	-0.001179	 1.227933	 0.004048	 0.007337	-0.098196	 9.311435	-12.625680	 177.375300	 0.885148	-33.595780	-2.190124	-24.517570	 81.237400	 19.018930	-2.385833	 28.452760	 0.000004	-9.422409	-11.836880	-177.040900	-0.891316	-33.401250	 2.134037	 26.666740	 81.911000	-21.325700	 2.384658	 28.388730	 0.000004	 0.986452	 2.723761	-0.017755	 1.175929	 3.667572	 0.479054	-3.532753	-4.623089	-0.781580	-91.776250	 78.527490	-179.999900	 51.593840	 36.395340	-54.943040	-25.263670	 2.469041	-7.357049	-29.399270	 2.945357	-4.263312	-2.635965	 4.993658	 6.788941	-5.165319	 0.784187	 3.516649	-5.225038	 0.466231	 0.424329	-0.000002	-3.783157	-0.089647	-3.423811	 4.938062	 0.147662	 89.782050	 78.203900	-180.000000	-22.876780	 23.066950	 98.621900	-9.116791	 2.215114	 7.476957	 7.940701	-1.182884	-5.226982	 6.112037	 4.509576	-0.364401	 4.968462	 1.518543	-9.347576	 5.168945	 0.703820	 2.021906
-0.000574	-0.002023	 1.228252	 0.004045	 0.007333	-0.098183	 9.314428	-12.557380	 177.370300	 0.890585	-33.477020	-2.180284	-24.365940	 81.192770	 18.865240	-2.385833	 28.452760	 0.000004	-9.426026	-11.730300	-177.029700	-0.896879	-33.276150	 2.123910	 26.625390	 81.893390	-21.283990	 2.384658	 28.388730	 0.000004	 2.722724	 2.723766	-0.017769	 1.175931	 3.667568	 0.479058	-3.532754	-4.623087	-0.781583	-91.776250	 78.527430	-180.000000	 51.917030	 36.588660	-55.475660	-24.953380	 2.390555	-7.243082	-29.453840	 2.966264	-4.267825	-2.635965	 4.993658	 6.788941	-5.165319	 0.784187	 3.516649	-5.225038	 0.466231	 0.424329	-0.000002	-3.783157	-0.089647	-3.423812	 4.938062	 0.147662	 89.782140	 78.203890	 180.000000	-28.107130	 25.310870	 95.998230	-7.626504	 2.150974	 7.359445	 9.651259	-1.954800	-4.717725	 6.112037	 4.509576	-0.364401	 4.968462	 1.518543	-9.347576	 5.168945	 0.703820	 2.021906
